<?xml version="1.0" encoding="UTF-8"?>
<svg width="893px" height="893px" viewBox="0 0 893 893" version="1.1" xmlns="http://www.w3.org/2000/svg" xmlns:xlink="http://www.w3.org/1999/xlink">
    <!-- Generator: Sketch 59 (86127) - https://sketch.com -->
    <title>no-smoking</title>
    <desc>Created with Sketch.</desc>
    <g id="Page-1" stroke="none" stroke-width="1" fill="none" fill-rule="evenodd" opacity="0.502162388">
        <g id="no-smoking" fill="#FF0000" fill-rule="nonzero">
            <path d="M609.5,395.049 L609.5,482.35 L659.301,532.149 L683.401,532.149 C700.001,532.149 713.401,518.749 713.401,502.149 L713.401,425.149 C713.401,408.548 700.001,395.149 683.401,395.149 L609.5,395.149 L609.5,395.049 L609.5,395.049 Z" id="Path"></path>
            <path d="M267.7,395.049 L197,395.049 C180.4,395.049 167,408.449 167,425.049 L167,502.049 C167,518.649 180.4,532.049 197,532.049 L312.1,532.049 L404.7,532.049 L312.1,439.449 L267.7,395.049 Z" id="Path"></path>
            <polygon id="Path" points="589.5 462.249 589.5 395.049 522.301 395.049"></polygon>
            <path d="M664.9,365.85 C662,343.85 648.699,300.45 589.099,289.45 C530.599,278.65 514.4,238.95 509.999,217.75 C508.999,213.25 502.999,212.25 500.698,216.35 C488.698,237.85 470.399,283.95 508.3,317.05 C555.599,358.45 617.599,338.95 656.9,370.35 C660.301,373.15 665.4,370.25 664.9,365.85 Z" id="Path"></path>
            <path d="M762.1,130.75 C721.1,89.75 673.401,57.55 620.2,35.05 C565.1,11.85 506.6,0.05 446.401,0.05 C386.201,0.05 327.701,11.85 272.601,35.15 C219.401,57.65 171.701,89.85 130.701,130.85 C89.701,171.85 57.601,219.45 35.101,272.65 C11.8,327.75 0,386.25 0,446.45 C0,506.65 11.8,565.15 35.1,620.249 C57.6,673.45 89.8,721.149 130.8,762.149 C171.8,803.149 219.5,835.35 272.7,857.85 C327.801,881.149 386.2,892.95 446.5,892.95 C506.801,892.95 565.2,881.149 620.301,857.85 C673.5,835.35 721.199,803.149 762.199,762.149 C803.199,721.149 835.4,673.45 857.9,620.249 C881.199,565.149 893,506.749 893,446.45 C893,386.15 881.199,327.75 857.9,272.65 C835.199,219.45 803.1,171.75 762.1,130.75 Z M446.4,782.851 C356.5,782.851 272,747.851 208.5,684.351 C145,620.851 110,536.351 110,446.45 C110,375.15 132,307.35 172.8,250.65 L642.301,720.15 C585.5,760.851 517.699,782.851 446.4,782.851 Z M720,642.249 L609.801,532.05 L250.6,172.85 C307.3,132.05 375.2,110.05 446.4,110.05 C536.301,110.05 620.801,145.05 684.301,208.55 C747.801,272.05 782.801,356.55 782.801,446.45 C782.801,517.749 760.801,585.55 720,642.249 Z" id="Shape"></path>
        </g>
    </g>
</svg>